<?xml version="1.0" encoding="utf-8"?>
<svg viewBox="386.498 234 32 32" xmlns="http://www.w3.org/2000/svg">
  <defs>
    <linearGradient id="ideavim_plugin-a" x1="-6.748%" x2="47.286%" y1="33.61%" y2="85.907%">
      <stop offset="0" stop-color="#3BEA62"/>
      <stop offset="1" stop-color="#087CFA"/>
    </linearGradient>
  </defs>
  <g transform="matrix(1.238978, 0.90017, -0.90017, 1.238978, 131.776901, -422.953003)" style="">
    <path d="M 399.962 247.648 C 399.207 246.894 399.147 246.318 399.692 245.453 C 400.237 244.588 401.955 245.886 401.955 245.886 L 401.955 250.737" style="fill: rgb(248, 245, 231);"/>
    <path d="M 413.846 253.602 C 413.846 255.077 411.827 256.134 409.392 256.134 L 396.381 256.134 C 395.211 256.134 394.232 256.003 393.433 255.817 C 391.496 255.367 390.613 254.596 390.613 254.596 L 391.478 252.513 L 393.607 252.617 Z M 413.846 253.602" fill="#cce6f6" style=""/>
    <path d="M 413.846 253.602 C 413.846 253.602 411.475 254.468 408.27 254.468 C 405.94 254.468 398.116 253.433 394.023 252.869 C 392.488 252.658 391.478 252.512 391.478 252.512 C 390.864 251.662 392.078 248.741 392.758 247.263 C 393.118 246.484 393.85 245.929 394.703 245.83 C 394.782 245.82 394.861 245.815 394.939 245.815 C 395.369 245.815 395.645 246.532 396.059 247.225 C 396.446 247.877 396.955 248.507 397.823 248.507 C 399.617 248.507 401.955 245.886 401.955 245.886 C 406.544 249.03 410.097 250.43 410.097 250.43 C 410.097 250.43 413.061 250.446 413.782 251.167 C 414.503 251.888 414.422 253.218 413.846 253.602 Z M 413.846 253.602" style="fill: rgb(8, 124, 250);"/>
    <path d="M 394.023 252.869 L 393.433 255.817 C 391.496 255.367 390.613 254.596 390.613 254.596 L 391.478 252.513 L 393.607 252.617 Z M 394.023 252.869" fill="#9dcae0" style=""/>
    <path d="M 396.059 247.225 C 395.073 245.986 393.193 250.255 394.023 252.869 C 392.488 252.658 391.478 252.513 391.478 252.513 C 390.864 251.662 392.078 248.741 392.758 247.263 C 393.118 246.484 393.85 245.929 394.703 245.83 C 394.782 245.82 394.861 245.815 394.939 245.815 C 395.369 245.815 395.645 246.532 396.059 247.225 Z M 396.059 247.225" style="fill: rgb(14, 112, 142);"/>
    <path d="M 403.527 246.924 L 399.174 251.768 C 397.7 250.892 395.578 250.174 394.016 249.717 C 392.843 249.372 391.985 249.174 391.959 249.168 C 392.108 248.769 392.268 248.379 392.421 248.022 L 394.341 248.65 L 394.884 248.827 C 395.509 249.031 396.192 248.95 396.753 248.608 L 397.153 248.363 C 397.35 248.454 397.572 248.507 397.823 248.507 C 399.617 248.507 401.955 245.886 401.955 245.886 C 402.494 246.256 403.02 246.601 403.527 246.924 Z M 403.527 246.924" style="fill: rgb(59, 234, 98);"/>
    <path d="M 413.847 253.602 C 413.847 253.602 411.475 254.468 408.27 254.468 C 407.586 254.468 406.426 254.378 405.025 254.238 L 405.025 254.237 C 405.025 253.495 406.924 251.743 408.366 251.616 C 408.623 252.865 410.097 252.512 411.219 252.128 C 412.341 251.743 413.783 251.167 413.783 251.167 C 414.503 251.888 414.422 253.218 413.847 253.602 Z M 413.847 253.602" style="fill: rgb(8, 124, 250);"/>
    <path d="M 394.341 248.65 C 394.214 248.978 394.103 249.339 394.016 249.717 C 392.843 249.372 391.985 249.174 391.959 249.168 C 392.108 248.769 392.268 248.379 392.421 248.022 Z M 394.341 248.65" style="fill: rgb(37, 187, 163);"/>
    <path d="M 408.366 251.616 C 406.924 251.743 405.025 253.495 405.025 254.237 L 405.025 254.238 C 403.784 254.113 402.355 253.948 400.899 253.77 C 400.899 253.051 400.191 252.372 399.174 251.768 L 399.174 251.768 L 403.528 246.924 C 407.331 249.34 410.097 250.43 410.097 250.43 C 410.77 251.102 409.809 251.487 408.366 251.616 Z M 408.366 251.616" style="fill: rgb(248, 245, 231);"/>
    <polygon fill="url(#ideavim_plugin-a)" fill-rule="evenodd" points="406.356 248.463 403.261 252.616 402.183 248.212 400.984 249.899 401.999 254.236 403.927 254.176 407.639 249.062" style="" transform="matrix(0.994522, 0.104529, -0.104529, 0.994522, 28.475005, -40.88594)"/>
    <g fill="#fb6572" transform="matrix(0.046265, 0, 0, 0.046265, 390.612823, 245.155533)" style="">
      <path d="m288.839844 72.65625c-2.007813 0-4.011719-.761719-5.542969-2.292969-3.058594-3.0625-3.058594-8.023437 0-11.082031l20.089844-20.089844c3.0625-3.058594 8.023437-3.058594 11.082031 0 3.058594 3.0625 3.0625 8.023438 0 11.082032l-20.089844 20.089843c-1.527344 1.53125-3.535156 2.292969-5.539062 2.292969zm0 0" style="fill: rgb(56, 228, 105);"/>
      <path d="m314.589844 87.082031c-2.007813 0-4.011719-.765625-5.542969-2.296875-3.0625-3.058594-3.0625-8.019531 0-11.082031l20.089844-20.085937c3.0625-3.058594 8.023437-3.058594 11.082031 0 3.058594 3.0625 3.058594 8.023437 0 11.082031l-20.089844 20.085937c-1.527344 1.53125-3.535156 2.296875-5.539062 2.296875zm0 0" style="fill: rgb(59, 233, 100);"/>
      <path d="m340.339844 101.507812c-2.007813 0-4.011719-.765624-5.542969-2.296874-3.058594-3.058594-3.058594-8.023438 0-11.082032l20.089844-20.085937c3.0625-3.0625 8.023437-3.0625 11.082031 0 3.058594 3.058593 3.0625 8.023437 0 11.082031l-20.089844 20.085938c-1.527344 1.53125-3.535156 2.296874-5.539062 2.296874zm0 0" style="fill: rgb(59, 233, 100);"/>
      <path d="m366.089844 115.929688c-2.003906 0-4.011719-.761719-5.539063-2.292969-3.0625-3.0625-3.0625-8.023438 0-11.082031l20.085938-20.089844c3.0625-3.058594 8.023437-3.058594 11.082031 0 3.0625 3.0625 3.0625 8.023437 0 11.082031l-20.085938 20.089844c-1.53125 1.53125-3.535156 2.292969-5.542968 2.292969zm0 0" style="fill: rgb(59, 233, 100);"/>
    </g>
    <path d="M 401.925 247.748 C 401.761 247.748 401.611 247.629 401.573 247.469 C 401.536 247.312 401.611 247.144 401.753 247.067 C 402 246.933 402.318 247.147 402.286 247.426 C 402.265 247.606 402.107 247.748 401.925 247.748 Z M 401.925 247.748" fill="#1e2628" style=""/>
  </g>
</svg>